<svg id="svg" xmlns="http://www.w3.org/2000/svg" xmlns:xlink="http://www.w3.org/1999/xlink" width="400" height="400" viewBox="0, 0, 400,400"><g id="svgg"><path id="path0" d="M121.203 170.300 C 121.204 197.305,121.320 220.615,121.461 222.100 L 121.716 224.800 173.258 224.800 L 224.800 224.800 224.800 205.660 C 224.800 191.339,224.674 186.177,224.300 185.160 C 223.944 184.190,223.800 180.528,223.800 172.400 C 223.800 164.272,223.944 160.610,224.300 159.640 C 224.673 158.625,224.800 153.581,224.800 139.740 L 224.800 121.200 173.000 121.200 L 121.200 121.200 121.203 170.300 " stroke="none" fill="#fcfc74" fill-rule="evenodd"></path><path id="path1" d="M69.680 123.680 C 69.416 123.944,69.200 124.381,69.200 124.652 C 69.200 124.923,68.795 125.202,68.300 125.272 C 67.534 125.381,67.382 125.679,67.279 127.275 C 67.177 128.856,67.021 129.169,66.279 129.275 C 65.536 129.381,65.381 129.693,65.278 131.300 C 65.168 133.015,65.061 133.200,64.178 133.200 C 63.271 133.200,63.200 133.345,63.200 135.200 C 63.200 137.067,63.133 137.200,62.200 137.200 C 61.267 137.200,61.200 137.333,61.200 139.200 C 61.200 141.067,61.133 141.200,60.200 141.200 C 59.269 141.200,59.200 141.335,59.200 143.172 C 59.200 144.913,59.094 145.159,58.300 145.272 C 57.532 145.381,57.382 145.679,57.278 147.300 C 57.169 149.003,57.057 149.200,56.200 149.200 C 55.343 149.200,55.231 149.397,55.122 151.100 C 55.018 152.721,54.868 153.019,54.100 153.128 C 53.379 153.230,53.190 153.528,53.150 154.628 C 53.070 156.834,53.026 156.997,52.500 157.050 C 52.225 157.078,51.820 157.123,51.600 157.150 C 51.380 157.178,51.200 157.719,51.200 158.353 C 51.200 159.165,50.966 159.568,50.411 159.713 C 49.851 159.859,49.546 160.395,49.360 161.560 C 49.216 162.462,48.954 163.200,48.777 163.200 C 48.038 163.200,47.200 164.547,47.200 165.734 C 47.200 166.674,46.963 167.114,46.300 167.405 C 45.608 167.709,45.372 168.188,45.278 169.475 C 45.178 170.849,44.999 171.173,44.278 171.275 C 43.538 171.380,43.381 171.694,43.279 173.275 C 43.177 174.856,43.021 175.169,42.279 175.275 C 41.536 175.381,41.381 175.693,41.278 177.300 C 41.168 179.015,41.061 179.200,40.178 179.200 C 39.271 179.200,39.200 179.345,39.200 181.200 C 39.200 183.067,39.133 183.200,38.200 183.200 C 37.267 183.200,37.200 183.333,37.200 185.200 C 37.200 187.067,37.133 187.200,36.200 187.200 C 35.267 187.200,35.200 187.333,35.200 189.200 C 35.200 191.067,35.133 191.200,34.200 191.200 C 33.267 191.200,33.200 191.333,33.200 193.200 C 33.200 195.067,33.133 195.200,32.200 195.200 C 31.267 195.200,31.200 195.333,31.200 197.200 C 31.200 199.055,31.129 199.200,30.222 199.200 C 29.339 199.200,29.232 199.385,29.122 201.100 C 29.018 202.721,28.868 203.019,28.100 203.128 C 27.379 203.230,27.190 203.528,27.150 204.628 C 27.070 206.834,27.026 206.997,26.500 207.050 C 26.225 207.078,25.820 207.123,25.600 207.150 C 25.380 207.178,25.200 207.719,25.200 208.353 C 25.200 209.165,24.966 209.568,24.411 209.713 C 23.851 209.859,23.546 210.395,23.360 211.560 C 23.216 212.462,22.954 213.200,22.777 213.200 C 22.038 213.200,21.200 214.547,21.200 215.734 C 21.200 216.674,20.963 217.114,20.300 217.405 C 19.480 217.765,19.390 218.110,19.284 221.300 L 19.169 224.800 70.434 224.800 L 121.699 224.800 121.452 222.500 C 121.316 221.235,121.089 219.075,120.948 217.700 C 120.712 215.411,120.611 215.200,119.745 215.200 C 118.878 215.200,118.800 215.036,118.800 213.200 C 118.800 211.333,118.733 211.200,117.800 211.200 C 116.867 211.200,116.800 211.067,116.800 209.200 C 116.800 207.333,116.733 207.200,115.800 207.200 C 114.867 207.200,114.800 207.067,114.800 205.200 C 114.800 204.100,114.665 203.221,114.500 203.247 C 113.140 203.462,112.840 203.133,112.722 201.300 C 112.648 200.147,112.403 199.380,112.100 199.350 C 111.825 199.322,111.420 199.278,111.200 199.250 C 110.980 199.222,110.800 198.379,110.800 197.376 C 110.800 196.263,110.644 195.649,110.400 195.800 C 110.180 195.936,110.000 195.857,110.000 195.624 C 110.000 195.391,109.730 195.200,109.400 195.200 C 108.968 195.200,108.800 194.758,108.800 193.624 C 108.800 192.757,108.592 191.919,108.338 191.762 C 108.029 191.571,107.982 191.662,108.197 192.038 C 108.373 192.347,108.131 192.203,107.659 191.717 C 107.186 191.231,106.800 190.454,106.800 189.990 C 106.800 188.812,106.083 187.600,105.386 187.600 C 105.002 187.600,104.800 187.187,104.800 186.400 C 104.800 185.740,104.620 185.178,104.400 185.150 C 104.180 185.123,103.775 185.078,103.500 185.050 C 102.974 184.997,102.930 184.834,102.850 182.628 C 102.810 181.528,102.621 181.230,101.900 181.128 C 101.134 181.019,100.982 180.721,100.879 179.125 C 100.777 177.544,100.621 177.231,99.879 177.125 C 99.136 177.019,98.981 176.707,98.878 175.100 C 98.768 173.385,98.661 173.200,97.778 173.200 C 96.871 173.200,96.800 173.055,96.800 171.200 C 96.800 169.333,96.733 169.200,95.800 169.200 C 94.867 169.200,94.800 169.067,94.800 167.200 C 94.800 165.333,94.733 165.200,93.800 165.200 C 92.867 165.200,92.800 165.067,92.800 163.200 C 92.800 161.333,92.733 161.200,91.800 161.200 C 90.867 161.200,90.800 161.067,90.800 159.200 C 90.800 157.333,90.733 157.200,89.800 157.200 C 88.867 157.200,88.800 157.067,88.800 155.200 C 88.800 154.100,88.665 153.221,88.500 153.247 C 87.140 153.462,86.840 153.133,86.722 151.300 C 86.648 150.147,86.403 149.380,86.100 149.350 C 85.825 149.322,85.420 149.278,85.200 149.250 C 84.980 149.222,84.800 148.379,84.800 147.376 C 84.800 146.263,84.644 145.649,84.400 145.800 C 84.180 145.936,84.000 145.857,84.000 145.624 C 84.000 145.391,83.730 145.200,83.400 145.200 C 82.968 145.200,82.800 144.758,82.800 143.624 C 82.800 142.757,82.592 141.919,82.338 141.762 C 82.029 141.571,81.982 141.662,82.197 142.038 C 82.373 142.347,82.131 142.203,81.659 141.717 C 81.186 141.231,80.800 140.454,80.800 139.990 C 80.800 138.812,80.083 137.600,79.386 137.600 C 79.006 137.600,78.800 137.192,78.800 136.442 C 78.800 135.729,78.419 134.922,77.807 134.342 C 77.225 133.790,76.811 132.945,76.807 132.300 C 76.803 131.695,76.620 131.178,76.400 131.150 C 76.180 131.123,75.775 131.078,75.500 131.050 C 74.974 130.997,74.930 130.834,74.850 128.628 C 74.810 127.528,74.621 127.230,73.900 127.128 C 73.195 127.028,72.971 126.698,72.867 125.602 C 72.656 123.373,70.991 122.369,69.680 123.680 " stroke="none" fill="#ec4c4c" fill-rule="evenodd"></path><path id="path2" d="M266.800 119.600 C 266.800 119.820,266.575 119.955,266.300 119.900 C 266.025 119.845,265.844 120.022,265.898 120.293 C 266.028 120.951,264.869 121.180,260.800 121.300 C 257.614 121.394,257.392 121.457,257.272 122.300 C 257.160 123.092,256.912 123.200,255.200 123.200 C 253.488 123.200,253.240 123.308,253.128 124.100 C 253.019 124.866,252.721 125.018,251.125 125.121 C 249.544 125.223,249.231 125.379,249.125 126.121 C 249.019 126.864,248.707 127.019,247.100 127.122 C 245.385 127.232,245.200 127.339,245.200 128.222 C 245.200 128.999,244.994 129.200,244.200 129.200 C 243.477 129.200,243.200 129.415,243.200 129.976 C 243.200 130.920,242.864 131.152,241.326 131.269 C 240.183 131.356,239.149 132.054,239.215 132.692 C 239.233 132.861,238.832 133.097,238.324 133.216 C 237.775 133.345,237.349 133.781,237.275 134.292 C 237.199 134.820,236.814 135.199,236.275 135.275 C 235.721 135.354,235.353 135.730,235.272 136.300 C 235.202 136.795,234.990 137.200,234.801 137.200 C 234.020 137.200,233.200 138.546,233.200 139.829 C 233.200 141.025,233.072 141.200,232.200 141.200 C 231.408 141.200,231.200 141.402,231.200 142.172 C 231.200 142.876,230.951 143.180,230.300 143.272 C 229.532 143.381,229.382 143.679,229.278 145.300 C 229.168 147.015,229.061 147.200,228.178 147.200 C 227.273 147.200,227.200 147.347,227.200 149.172 C 227.200 150.913,227.094 151.159,226.300 151.272 C 225.474 151.389,225.382 151.665,225.178 154.600 C 225.056 156.360,224.696 158.520,224.378 159.400 C 223.457 161.949,223.566 183.544,224.512 185.950 C 224.905 186.950,225.200 188.782,225.200 190.222 C 225.200 192.533,225.275 192.755,226.100 192.872 C 226.866 192.981,227.018 193.279,227.121 194.875 C 227.223 196.456,227.379 196.769,228.121 196.875 C 228.864 196.981,229.019 197.293,229.122 198.900 C 229.232 200.615,229.339 200.800,230.222 200.800 C 231.025 200.800,231.200 200.999,231.200 201.911 C 231.200 203.176,232.268 204.929,232.827 204.583 C 233.032 204.456,233.200 204.903,233.200 205.576 C 233.200 206.615,233.351 206.800,234.200 206.800 C 235.000 206.800,235.200 207.000,235.200 207.800 C 235.200 208.600,235.400 208.800,236.200 208.800 C 237.000 208.800,237.200 209.000,237.200 209.800 C 237.200 210.600,237.400 210.800,238.200 210.800 C 239.000 210.800,239.200 211.000,239.200 211.800 C 239.200 212.600,239.400 212.800,240.200 212.800 C 240.930 212.800,241.200 213.014,241.200 213.592 C 241.200 214.376,241.767 214.638,244.000 214.888 C 244.689 214.965,245.040 215.280,245.128 215.900 C 245.219 216.543,245.525 216.800,246.200 216.800 C 246.875 216.800,247.181 217.057,247.272 217.700 C 247.381 218.468,247.679 218.618,249.300 218.722 C 251.015 218.832,251.200 218.939,251.200 219.822 C 251.200 220.729,251.345 220.800,253.200 220.800 C 254.300 220.800,255.200 220.967,255.200 221.171 C 255.200 222.330,256.537 222.800,259.829 222.800 C 263.158 222.800,263.200 222.812,263.200 223.800 L 263.200 224.800 274.957 224.800 L 286.713 224.800 286.964 223.800 C 287.202 222.854,287.364 222.800,289.989 222.800 C 292.415 222.800,292.889 222.674,293.764 221.800 C 294.560 221.003,295.165 220.800,296.738 220.800 C 298.498 220.800,298.740 220.694,298.958 219.824 C 299.155 219.040,299.497 218.824,300.702 218.724 C 301.803 218.633,302.305 218.361,302.595 217.700 C 302.837 217.148,303.340 216.800,303.895 216.800 C 304.588 216.800,304.800 216.571,304.800 215.822 C 304.800 214.939,304.985 214.832,306.700 214.722 C 308.321 214.618,308.619 214.468,308.728 213.700 C 308.820 213.049,309.124 212.800,309.828 212.800 C 310.598 212.800,310.800 212.592,310.800 211.800 C 310.800 211.000,311.000 210.800,311.800 210.800 C 312.600 210.800,312.800 210.600,312.800 209.800 C 312.800 209.000,313.000 208.800,313.800 208.800 C 314.600 208.800,314.800 208.600,314.800 207.800 C 314.800 207.000,315.000 206.800,315.800 206.800 C 316.595 206.800,316.800 206.599,316.800 205.818 C 316.800 205.278,317.250 204.386,317.800 203.836 C 318.350 203.286,318.800 202.378,318.800 201.818 C 318.800 200.999,318.995 200.800,319.800 200.800 C 320.733 200.800,320.800 200.667,320.800 198.800 C 320.800 196.933,320.867 196.800,321.800 196.800 C 322.733 196.800,322.800 196.667,322.800 194.800 C 322.800 192.933,322.867 192.800,323.800 192.800 C 324.777 192.800,324.800 192.731,324.800 189.828 C 324.800 187.050,324.859 186.847,325.700 186.728 L 326.600 186.600 326.706 173.606 C 326.807 161.121,326.780 160.569,326.006 159.522 C 325.563 158.923,325.200 158.240,325.200 158.004 C 325.200 157.768,324.480 156.305,323.600 154.752 C 322.720 153.199,322.000 151.860,322.000 151.776 C 322.000 151.692,321.487 150.853,320.861 149.912 C 320.234 148.970,318.765 146.760,317.596 145.000 C 312.219 136.904,303.722 127.200,302.010 127.200 C 301.572 127.200,301.188 126.806,301.036 126.200 C 300.815 125.322,300.569 125.200,299.020 125.200 C 297.495 125.200,297.238 125.078,297.128 124.300 C 297.017 123.518,296.729 123.384,294.925 123.280 C 293.137 123.176,292.833 123.039,292.725 122.280 C 292.583 121.281,292.740 121.317,288.242 121.250 C 285.220 121.205,284.790 121.101,283.942 120.207 L 283.000 119.214 274.900 119.207 C 269.762 119.203,266.800 119.346,266.800 119.600 " stroke="none" fill="#8cccfc" fill-rule="evenodd"></path><path id="path3" d="M301.467 115.467 C 301.320 115.613,301.200 116.063,301.200 116.467 C 301.200 116.982,300.903 117.200,300.200 117.200 C 299.229 117.200,299.200 117.280,299.200 120.000 C 299.200 122.720,299.229 122.800,300.200 122.800 C 301.133 122.800,301.200 122.933,301.200 124.800 C 301.200 126.685,301.260 126.800,302.235 126.800 C 302.957 126.800,303.894 127.440,305.340 128.921 C 306.479 130.087,307.723 131.162,308.105 131.308 C 308.487 131.455,308.800 131.855,308.800 132.197 C 308.800 132.540,309.250 132.991,309.800 133.200 C 310.350 133.409,310.800 133.859,310.800 134.200 C 310.800 134.541,311.250 134.991,311.800 135.200 C 312.352 135.410,312.800 135.901,312.800 136.295 C 312.800 136.689,313.205 137.188,313.700 137.405 C 314.195 137.622,314.658 138.205,314.728 138.700 C 314.798 139.195,315.108 139.600,315.418 139.600 C 315.727 139.600,316.236 140.095,316.549 140.701 C 316.862 141.306,317.497 142.144,317.959 142.563 C 318.422 142.982,318.800 143.746,318.800 144.262 C 318.800 144.778,318.967 145.200,319.171 145.200 C 319.857 145.200,320.800 146.449,320.800 147.356 C 320.800 147.851,321.250 148.647,321.800 149.125 C 322.390 149.638,322.800 150.424,322.800 151.040 C 322.800 151.614,323.250 152.619,323.800 153.273 C 324.354 153.931,324.800 154.969,324.800 155.600 C 324.800 156.226,325.233 157.253,325.762 157.882 C 326.310 158.534,326.847 159.839,327.008 160.913 C 327.254 162.556,327.414 162.800,328.245 162.800 C 329.124 162.800,329.200 162.959,329.200 164.800 C 329.200 166.667,329.267 166.800,330.200 166.800 C 331.000 166.800,331.200 167.000,331.200 167.800 C 331.200 168.600,331.400 168.800,332.200 168.800 C 333.000 168.800,333.200 169.000,333.200 169.800 C 333.200 170.600,333.400 170.800,334.200 170.800 C 335.133 170.800,335.200 170.933,335.200 172.800 C 335.200 174.667,335.267 174.800,336.200 174.800 C 337.000 174.800,337.200 175.000,337.200 175.800 C 337.200 176.600,337.400 176.800,338.200 176.800 C 339.133 176.800,339.200 176.933,339.200 178.800 C 339.200 180.667,339.267 180.800,340.200 180.800 C 341.000 180.800,341.200 181.000,341.200 181.800 C 341.200 182.600,341.400 182.800,342.200 182.800 C 343.133 182.800,343.200 182.933,343.200 184.800 C 343.200 186.667,343.267 186.800,344.200 186.800 C 345.000 186.800,345.200 187.000,345.200 187.800 C 345.200 188.600,345.400 188.800,346.200 188.800 C 347.000 188.800,347.200 189.000,347.200 189.800 C 347.200 190.600,347.400 190.800,348.200 190.800 C 349.133 190.800,349.200 190.933,349.200 192.800 C 349.200 194.667,349.267 194.800,350.200 194.800 C 351.000 194.800,351.200 195.000,351.200 195.800 C 351.200 196.600,351.400 196.800,352.200 196.800 C 353.133 196.800,353.200 196.933,353.200 198.800 C 353.200 200.667,353.267 200.800,354.200 200.800 C 355.000 200.800,355.200 201.000,355.200 201.800 C 355.200 202.600,355.400 202.800,356.200 202.800 C 357.133 202.800,357.200 202.933,357.200 204.800 C 357.200 206.667,357.267 206.800,358.200 206.800 C 359.000 206.800,359.200 207.000,359.200 207.800 C 359.200 208.600,359.400 208.800,360.200 208.800 C 361.000 208.800,361.200 209.000,361.200 209.800 C 361.200 210.600,361.400 210.800,362.200 210.800 C 363.133 210.800,363.200 210.933,363.200 212.800 C 363.200 214.667,363.267 214.800,364.200 214.800 C 365.000 214.800,365.200 215.000,365.200 215.800 C 365.200 216.600,365.400 216.800,366.200 216.800 C 367.133 216.800,367.200 216.933,367.200 218.800 C 367.200 220.667,367.267 220.800,368.200 220.800 C 369.000 220.800,369.200 221.000,369.200 221.800 C 369.200 222.600,369.400 222.800,370.200 222.800 C 371.000 222.800,371.200 223.000,371.200 223.800 C 371.200 224.771,371.280 224.800,374.000 224.800 C 376.720 224.800,376.800 224.771,376.800 223.800 C 376.800 223.000,377.000 222.800,377.800 222.800 C 378.771 222.800,378.800 222.720,378.800 220.000 C 378.800 217.280,378.771 217.200,377.800 217.200 C 377.000 217.200,376.800 217.000,376.800 216.200 C 376.800 215.400,376.600 215.200,375.800 215.200 C 374.867 215.200,374.800 215.067,374.800 213.200 C 374.800 211.333,374.733 211.200,373.800 211.200 C 373.000 211.200,372.800 211.000,372.800 210.200 C 372.800 209.400,372.600 209.200,371.800 209.200 C 371.000 209.200,370.800 209.000,370.800 208.200 C 370.800 207.400,370.600 207.200,369.800 207.200 C 368.867 207.200,368.800 207.067,368.800 205.200 C 368.800 203.333,368.733 203.200,367.800 203.200 C 367.000 203.200,366.800 203.000,366.800 202.200 C 366.800 201.400,366.600 201.200,365.800 201.200 C 364.867 201.200,364.800 201.067,364.800 199.200 C 364.800 197.333,364.733 197.200,363.800 197.200 C 363.000 197.200,362.800 197.000,362.800 196.200 C 362.800 195.400,362.600 195.200,361.800 195.200 C 360.867 195.200,360.800 195.067,360.800 193.200 C 360.800 191.333,360.733 191.200,359.800 191.200 C 359.000 191.200,358.800 191.000,358.800 190.200 C 358.800 189.400,358.600 189.200,357.800 189.200 C 357.000 189.200,356.800 189.000,356.800 188.200 C 356.800 187.400,356.600 187.200,355.800 187.200 C 354.867 187.200,354.800 187.067,354.800 185.200 C 354.800 183.333,354.733 183.200,353.800 183.200 C 353.000 183.200,352.800 183.000,352.800 182.200 C 352.800 181.400,352.600 181.200,351.800 181.200 C 350.867 181.200,350.800 181.067,350.800 179.200 C 350.800 177.333,350.733 177.200,349.800 177.200 C 349.000 177.200,348.800 177.000,348.800 176.200 C 348.800 175.400,348.600 175.200,347.800 175.200 C 346.867 175.200,346.800 175.067,346.800 173.200 C 346.800 171.333,346.733 171.200,345.800 171.200 C 345.000 171.200,344.800 171.000,344.800 170.200 C 344.800 169.400,344.600 169.200,343.800 169.200 C 343.000 169.200,342.800 169.000,342.800 168.200 C 342.800 167.400,342.600 167.200,341.800 167.200 C 340.867 167.200,340.800 167.067,340.800 165.200 C 340.800 163.333,340.733 163.200,339.800 163.200 C 339.000 163.200,338.800 163.000,338.800 162.200 C 338.800 161.400,338.600 161.200,337.800 161.200 C 336.867 161.200,336.800 161.067,336.800 159.200 C 336.800 157.333,336.733 157.200,335.800 157.200 C 335.000 157.200,334.800 157.000,334.800 156.200 C 334.800 155.400,334.600 155.200,333.800 155.200 C 332.867 155.200,332.800 155.067,332.800 153.200 C 332.800 151.333,332.733 151.200,331.800 151.200 C 331.000 151.200,330.800 151.000,330.800 150.200 C 330.800 149.400,330.600 149.200,329.800 149.200 C 329.000 149.200,328.800 149.000,328.800 148.200 C 328.800 147.400,328.600 147.200,327.800 147.200 C 326.867 147.200,326.800 147.067,326.800 145.200 C 326.800 143.333,326.733 143.200,325.800 143.200 C 325.000 143.200,324.800 143.000,324.800 142.200 C 324.800 141.400,324.600 141.200,323.800 141.200 C 322.867 141.200,322.800 141.067,322.800 139.200 C 322.800 137.333,322.733 137.200,321.800 137.200 C 321.000 137.200,320.800 137.000,320.800 136.200 C 320.800 135.400,320.600 135.200,319.800 135.200 C 319.000 135.200,318.800 135.000,318.800 134.200 C 318.800 133.400,318.600 133.200,317.800 133.200 C 316.867 133.200,316.800 133.067,316.800 131.200 C 316.800 129.333,316.733 129.200,315.800 129.200 C 315.000 129.200,314.800 129.000,314.800 128.200 C 314.800 127.400,314.600 127.200,313.800 127.200 C 312.867 127.200,312.800 127.067,312.800 125.200 C 312.800 123.333,312.733 123.200,311.800 123.200 C 311.000 123.200,310.800 123.000,310.800 122.200 C 310.800 121.400,310.600 121.200,309.800 121.200 C 308.867 121.200,308.800 121.067,308.800 119.200 C 308.800 117.333,308.733 117.200,307.800 117.200 C 307.000 117.200,306.800 117.000,306.800 116.200 C 306.800 115.210,302.337 114.596,301.467 115.467 M71.200 240.200 C 71.200 241.000,71.000 241.200,70.200 241.200 C 69.400 241.200,69.200 241.400,69.200 242.200 C 69.200 243.000,69.000 243.200,68.200 243.200 C 67.400 243.200,67.200 243.400,67.200 244.200 C 67.200 245.000,67.000 245.200,66.200 245.200 C 65.281 245.200,65.200 245.347,65.200 247.000 C 65.200 248.653,65.281 248.800,66.200 248.800 C 67.091 248.800,67.200 248.965,67.200 250.320 C 67.200 252.374,67.759 252.800,70.453 252.800 C 72.648 252.800,72.754 252.753,72.913 251.700 C 73.005 251.095,73.107 258.295,73.140 267.700 L 73.200 284.800 77.000 284.800 L 80.800 284.800 80.800 262.480 C 80.800 245.653,80.682 240.042,80.320 239.680 C 80.006 239.366,78.347 239.200,75.520 239.200 L 71.200 239.200 71.200 240.200 M92.681 240.213 C 92.157 240.933,91.589 241.200,90.581 241.200 C 89.375 241.200,89.200 241.326,89.200 242.200 C 89.200 243.000,89.000 243.200,88.200 243.200 C 87.400 243.200,87.200 243.400,87.200 244.200 C 87.200 245.000,87.000 245.200,86.200 245.200 C 85.269 245.200,85.200 245.335,85.200 247.172 C 85.200 248.913,85.094 249.159,84.300 249.272 L 83.400 249.400 83.288 262.000 C 83.167 275.618,83.213 276.223,84.380 276.594 C 84.979 276.784,85.186 277.273,85.279 278.720 C 85.382 280.321,85.534 280.619,86.300 280.728 C 86.951 280.820,87.200 281.124,87.200 281.828 C 87.200 282.586,87.410 282.800,88.157 282.800 C 88.846 282.800,89.184 283.082,89.367 283.810 L 89.620 284.820 96.110 284.710 C 102.498 284.602,102.602 284.586,102.728 283.700 C 102.820 283.049,103.124 282.800,103.828 282.800 C 104.598 282.800,104.800 282.592,104.800 281.800 C 104.800 281.000,105.000 280.800,105.800 280.800 C 106.746 280.800,106.800 280.681,106.800 278.581 C 106.800 276.728,106.965 276.209,107.800 275.435 C 108.776 274.531,108.800 274.371,108.800 268.854 L 108.800 263.200 107.800 263.200 C 106.867 263.200,106.800 263.067,106.800 261.200 C 106.800 259.333,106.733 259.200,105.800 259.200 C 105.000 259.200,104.800 259.000,104.800 258.200 C 104.800 257.400,104.600 257.200,103.800 257.200 C 103.000 257.200,102.800 257.000,102.800 256.200 L 102.800 255.200 97.027 255.200 L 91.253 255.200 91.087 256.300 C 90.995 256.905,90.893 256.365,90.860 255.100 C 90.803 252.897,90.842 252.800,91.800 252.800 C 92.733 252.800,92.800 252.667,92.800 250.800 C 92.800 248.933,92.867 248.800,93.800 248.800 C 94.600 248.800,94.800 248.600,94.800 247.800 C 94.800 245.893,97.035 246.407,97.352 248.387 C 97.511 249.383,97.903 250.134,98.403 250.401 C 98.868 250.650,99.200 251.239,99.200 251.814 C 99.200 252.793,99.228 252.800,103.000 252.800 L 106.800 252.800 106.800 249.028 C 106.800 245.420,106.761 245.250,105.900 245.128 C 105.211 245.030,104.971 244.696,104.875 243.705 C 104.727 242.176,103.541 241.203,101.811 241.193 C 101.048 241.189,100.252 240.819,99.658 240.193 C 98.264 238.723,93.756 238.736,92.681 240.213 M21.388 241.689 C 21.280 241.970,21.239 251.740,21.296 263.400 L 21.400 284.600 26.000 284.600 L 30.600 284.600 30.711 278.655 C 30.812 273.216,30.892 272.654,31.643 272.046 C 32.095 271.680,32.611 270.755,32.791 269.990 C 33.101 268.674,33.120 268.711,33.159 270.700 C 33.197 272.662,33.266 272.800,34.200 272.800 C 35.200 272.800,35.200 272.802,35.200 276.772 C 35.200 280.587,35.236 280.749,36.100 280.872 C 36.868 280.981,37.018 281.279,37.122 282.900 L 37.244 284.800 42.022 284.800 L 46.800 284.800 46.800 282.000 C 46.800 279.280,46.771 279.200,45.800 279.200 C 44.870 279.200,44.800 279.064,44.800 277.242 C 44.800 275.677,44.601 275.095,43.807 274.342 C 42.998 273.574,42.813 273.011,42.807 271.300 C 42.800 269.329,42.739 269.200,41.800 269.200 C 40.836 269.200,40.800 269.107,40.800 266.591 C 40.800 264.197,40.718 263.945,39.800 263.527 C 39.075 263.197,38.800 262.759,38.800 261.936 C 38.800 260.991,38.968 260.800,39.800 260.800 C 40.733 260.800,40.800 260.667,40.800 258.800 C 40.800 256.933,40.867 256.800,41.800 256.800 C 42.733 256.800,42.800 256.667,42.800 254.800 C 42.800 252.933,42.867 252.800,43.800 252.800 C 44.733 252.800,44.800 252.667,44.800 250.800 C 44.800 248.933,44.867 248.800,45.800 248.800 C 46.796 248.800,46.800 248.787,46.800 245.000 L 46.800 241.200 42.000 241.200 L 37.200 241.200 37.200 244.200 C 37.200 247.133,37.178 247.200,36.200 247.200 C 35.267 247.200,35.200 247.333,35.200 249.200 C 35.200 250.300,35.033 251.200,34.829 251.200 C 33.994 251.200,33.200 252.545,33.200 253.959 C 33.200 255.035,32.923 255.721,32.222 256.380 C 31.684 256.885,31.172 257.862,31.086 258.549 C 30.999 259.237,30.899 257.676,30.864 255.081 C 30.802 250.503,30.830 250.334,31.816 249.420 C 32.778 248.529,32.826 248.288,32.716 244.939 L 32.600 241.400 27.092 241.289 C 22.906 241.204,21.537 241.300,21.388 241.689 M125.200 243.010 C 125.200 244.572,125.063 244.872,124.200 245.200 L 123.200 245.580 123.200 255.761 L 123.200 265.942 122.200 266.729 L 121.200 267.515 121.200 275.158 L 121.200 282.800 125.000 282.800 L 128.800 282.800 128.800 278.800 C 128.800 274.811,128.803 274.800,129.790 274.800 L 130.779 274.800 130.901 268.700 L 131.022 262.600 131.111 268.926 C 131.200 275.227,131.500 276.800,132.614 276.800 C 133.051 276.800,133.200 277.310,133.200 278.800 L 133.200 280.800 137.000 280.800 C 140.787 280.800,140.800 280.796,140.800 279.800 C 140.800 279.000,141.000 278.800,141.800 278.800 L 142.800 278.800 142.879 272.700 C 142.923 269.345,143.022 267.931,143.098 269.557 C 143.219 272.131,143.364 272.614,144.219 273.286 C 145.153 274.021,145.200 274.265,145.200 278.429 L 145.200 282.800 148.000 282.800 L 150.800 282.800 150.800 262.000 L 150.800 241.200 145.000 241.200 L 139.200 241.200 139.200 246.330 C 139.200 251.259,139.161 251.497,138.219 252.382 C 137.483 253.074,137.202 253.814,137.093 255.352 C 137.013 256.478,136.915 254.309,136.874 250.531 L 136.800 243.662 135.569 242.431 C 134.339 241.200,134.338 241.200,129.769 241.200 L 125.200 241.200 125.200 243.010 M183.200 245.200 L 183.200 249.200 180.431 249.200 C 176.831 249.200,175.237 250.505,175.140 253.531 C 175.102 254.708,175.018 254.993,174.913 254.300 C 174.784 253.447,174.528 253.200,173.773 253.200 C 173.002 253.200,172.800 252.993,172.800 252.200 C 172.800 251.222,172.733 251.200,169.800 251.200 C 167.432 251.200,166.800 251.077,166.800 250.614 C 166.800 249.090,163.869 248.923,163.394 250.420 C 163.177 251.101,162.769 251.200,160.173 251.200 C 157.268 251.200,157.200 251.223,157.200 252.200 C 157.200 253.000,157.000 253.200,156.200 253.200 C 155.400 253.200,155.200 253.400,155.200 254.200 C 155.200 255.000,155.000 255.200,154.200 255.200 C 153.204 255.200,153.200 255.213,153.200 259.000 L 153.200 262.800 157.000 262.800 C 160.787 262.800,160.800 262.796,160.800 261.800 C 160.800 261.000,161.000 260.800,161.800 260.800 C 162.600 260.800,162.800 260.600,162.800 259.800 C 162.800 259.000,163.000 258.800,163.800 258.800 C 164.600 258.800,164.800 258.600,164.800 257.800 C 164.800 257.250,164.980 256.800,165.200 256.800 C 165.420 256.800,165.600 257.064,165.600 257.386 C 165.600 258.123,166.832 258.800,168.174 258.800 C 169.151 258.800,169.200 258.905,169.200 261.000 L 169.200 263.200 163.200 263.200 L 157.200 263.200 157.200 264.200 C 157.200 265.044,157.013 265.200,156.000 265.200 C 154.460 265.200,153.200 266.460,153.200 268.000 C 153.200 269.013,153.044 269.200,152.200 269.200 L 151.200 269.200 151.200 273.958 C 151.200 278.505,151.244 278.758,152.193 279.658 C 152.775 280.210,153.189 281.055,153.193 281.700 C 153.200 282.752,153.287 282.800,155.200 282.800 C 157.067 282.800,157.200 282.867,157.200 283.800 L 157.200 284.800 163.000 284.800 L 168.800 284.800 168.800 283.800 C 168.800 283.250,168.980 282.800,169.200 282.800 C 169.420 282.800,169.600 283.064,169.600 283.386 C 169.600 284.352,170.986 284.800,173.974 284.800 L 176.800 284.800 176.800 279.895 C 176.800 275.192,176.837 274.973,177.700 274.595 C 179.191 273.941,179.289 263.748,177.818 262.353 C 176.975 261.553,176.813 261.031,176.807 259.100 L 176.800 256.800 179.995 256.800 L 183.190 256.800 183.295 270.700 L 183.400 284.600 186.100 284.718 L 188.800 284.837 188.800 270.818 L 188.800 256.800 191.815 256.800 L 194.830 256.800 194.715 253.100 L 194.600 249.400 192.700 249.278 L 190.800 249.156 190.800 245.421 C 190.800 241.047,190.960 241.200,186.367 241.200 L 183.200 241.200 183.200 245.200 M193.467 241.467 C 192.686 242.247,193.212 246.727,194.193 247.658 L 195.186 248.600 195.193 265.700 L 195.200 282.800 199.000 282.800 L 202.800 282.800 202.800 278.818 C 202.800 275.104,202.867 274.769,203.800 273.836 C 204.690 272.946,204.800 272.504,204.800 269.818 C 204.800 266.865,204.822 266.800,205.800 266.800 C 206.733 266.800,206.800 266.667,206.800 264.800 C 206.800 262.933,206.867 262.800,207.800 262.800 C 208.607 262.800,208.814 262.588,208.871 261.700 C 208.909 261.095,209.044 261.860,209.171 263.400 C 209.368 265.804,209.527 266.256,210.300 266.595 C 211.190 266.985,211.200 267.081,211.200 274.895 L 211.200 282.800 215.000 282.800 L 218.800 282.800 218.800 275.042 C 218.800 267.301,218.798 267.282,217.807 266.342 C 216.851 265.436,216.814 265.207,216.807 260.300 L 216.800 255.200 215.800 255.200 C 215.080 255.200,214.800 254.985,214.800 254.431 C 214.800 251.689,208.473 249.866,207.405 252.300 C 207.163 252.852,206.660 253.200,206.105 253.200 C 205.406 253.200,205.200 253.428,205.200 254.200 C 205.200 254.993,204.998 255.200,204.227 255.200 C 203.472 255.200,203.216 255.447,203.087 256.300 C 202.995 256.905,202.893 253.755,202.860 249.300 L 202.800 241.200 198.267 241.200 C 195.773 241.200,193.613 241.320,193.467 241.467 M309.200 245.200 L 309.200 249.200 306.680 249.200 C 303.527 249.200,303.210 249.522,303.160 252.780 C 303.134 254.503,303.026 255.058,302.844 254.400 C 302.686 253.831,302.224 253.350,301.771 253.284 C 301.334 253.220,300.801 252.770,300.588 252.284 C 300.234 251.477,299.877 251.390,296.500 251.285 C 293.615 251.195,292.800 251.044,292.800 250.599 C 292.800 249.099,289.867 248.930,289.399 250.403 C 289.199 251.035,288.701 251.184,286.479 251.282 C 284.159 251.384,283.748 251.518,283.412 252.284 C 283.199 252.770,282.659 253.220,282.212 253.284 C 281.547 253.379,281.378 253.744,281.278 255.300 C 281.168 257.015,281.061 257.200,280.178 257.200 C 279.234 257.200,279.200 257.297,279.200 260.000 L 279.200 262.800 283.551 262.800 C 288.379 262.800,288.678 262.661,289.072 260.236 C 289.260 259.072,289.479 258.800,290.223 258.800 C 290.729 258.800,291.496 258.350,291.929 257.800 C 292.361 257.250,292.824 256.800,292.958 256.800 C 293.091 256.800,293.200 257.250,293.200 257.800 C 293.200 258.600,293.400 258.800,294.200 258.800 C 295.000 258.800,295.200 259.000,295.200 259.800 C 295.200 260.600,295.400 260.800,296.200 260.800 C 297.043 260.800,297.200 260.987,297.200 261.991 L 297.200 263.181 290.300 263.291 C 283.487 263.399,283.398 263.411,283.272 264.300 C 283.180 264.951,282.876 265.200,282.172 265.200 C 281.402 265.200,281.200 265.408,281.200 266.200 C 281.200 267.000,281.000 267.200,280.200 267.200 C 279.305 267.200,279.200 267.037,279.200 265.650 C 279.200 263.114,278.741 261.510,277.956 261.304 C 277.359 261.148,277.213 260.619,277.117 258.258 C 277.011 255.665,276.919 255.388,276.125 255.275 C 275.579 255.198,275.202 254.821,275.125 254.275 C 274.916 252.807,267.884 252.731,266.741 254.185 C 265.755 255.438,265.294 255.471,265.128 254.300 C 265.038 253.666,264.687 253.364,263.942 253.277 C 263.359 253.210,262.567 252.805,262.180 252.377 C 261.256 251.357,259.287 251.379,258.177 252.422 C 257.384 253.166,256.743 253.251,251.351 253.322 L 245.400 253.400 245.283 255.814 C 245.179 257.963,245.278 258.334,246.183 259.184 L 247.200 260.139 247.200 271.470 L 247.200 282.800 250.026 282.800 C 254.806 282.800,255.200 282.142,255.200 274.168 C 255.200 268.963,255.218 268.853,256.100 268.728 C 256.858 268.620,257.020 268.315,257.128 266.800 C 257.204 265.730,257.498 264.865,257.853 264.666 C 258.182 264.482,258.608 263.942,258.800 263.466 C 259.014 262.937,259.159 266.527,259.175 272.700 L 259.200 282.800 262.957 282.800 C 267.575 282.800,267.200 283.650,267.200 273.167 C 267.200 265.093,267.228 264.800,267.992 264.800 C 268.504 264.800,268.874 264.446,269.036 263.800 L 269.287 262.800 270.237 263.700 C 271.724 265.110,271.697 272.994,270.200 274.400 C 269.272 275.272,269.200 275.608,269.200 279.070 L 269.200 282.800 273.200 282.800 L 277.200 282.800 277.200 279.800 C 277.200 276.867,277.222 276.800,278.200 276.800 C 279.133 276.800,279.200 276.933,279.200 278.800 C 279.200 280.667,279.267 280.800,280.200 280.800 C 281.000 280.800,281.200 281.000,281.200 281.800 C 281.200 282.592,281.402 282.800,282.172 282.800 C 282.876 282.800,283.180 283.049,283.272 283.700 C 283.397 284.580,283.527 284.602,289.227 284.710 L 295.054 284.821 295.595 283.810 C 296.291 282.509,297.200 282.503,297.200 283.800 C 297.200 284.786,297.245 284.800,300.520 284.800 C 305.136 284.800,304.800 285.886,304.800 270.969 L 304.800 258.098 303.900 257.470 C 303.048 256.875,303.165 256.841,306.100 256.821 L 309.200 256.800 309.200 270.320 C 309.200 285.696,308.985 284.800,312.680 284.800 C 317.000 284.800,316.800 285.520,316.800 270.000 L 316.800 256.800 319.000 256.800 L 321.200 256.800 321.200 269.800 L 321.200 282.800 325.000 282.800 L 328.800 282.800 328.800 268.000 L 328.800 253.200 325.800 253.200 C 322.852 253.200,322.800 253.182,322.800 252.182 C 322.800 250.435,321.150 249.200,318.818 249.200 L 316.800 249.200 316.800 245.200 L 316.800 241.200 313.000 241.200 L 309.200 241.200 309.200 245.200 M321.200 244.972 C 321.200 248.580,321.239 248.750,322.100 248.872 C 322.678 248.954,323.046 249.322,323.128 249.900 C 323.337 251.375,328.800 251.279,328.800 249.800 C 328.800 249.000,329.000 248.800,329.800 248.800 C 330.788 248.800,330.800 248.759,330.800 245.414 C 330.800 241.240,330.747 241.200,325.226 241.200 L 321.200 241.200 321.200 244.972 M227.829 249.829 C 227.483 250.174,227.200 250.614,227.200 250.807 C 227.200 250.999,226.345 251.211,225.300 251.278 C 223.679 251.382,223.381 251.532,223.272 252.300 C 223.180 252.951,222.876 253.200,222.172 253.200 C 221.272 253.200,221.200 253.349,221.200 255.200 C 221.200 257.067,221.133 257.200,220.200 257.200 L 219.200 257.200 219.200 267.000 L 219.200 276.800 220.177 276.800 C 221.040 276.800,221.168 276.998,221.277 278.500 C 221.371 279.802,221.607 280.291,222.284 280.588 C 222.770 280.801,223.220 281.341,223.284 281.788 C 223.379 282.450,223.744 282.622,225.262 282.720 C 226.864 282.824,227.158 282.979,227.373 283.834 C 227.737 285.287,235.944 285.184,236.587 283.718 C 236.890 283.027,237.366 282.811,238.787 282.718 C 240.319 282.618,240.620 282.461,240.728 281.700 C 240.819 281.055,241.125 280.800,241.806 280.800 C 242.656 280.800,242.769 280.599,242.878 278.900 C 242.982 277.279,243.132 276.981,243.900 276.872 C 244.734 276.754,244.800 276.542,244.800 273.972 L 244.800 271.200 241.000 271.200 C 237.263 271.200,237.200 271.216,237.200 272.153 C 237.200 272.782,236.917 273.181,236.370 273.324 C 235.914 273.443,235.443 273.914,235.324 274.370 C 235.181 274.917,234.782 275.200,234.153 275.200 C 233.403 275.200,233.200 275.413,233.200 276.200 C 233.200 277.044,233.013 277.200,232.000 277.200 C 230.987 277.200,230.800 277.044,230.800 276.200 C 230.800 275.400,230.600 275.200,229.800 275.200 C 229.000 275.200,228.800 275.000,228.800 274.200 C 228.800 273.400,228.600 273.200,227.800 273.200 C 226.855 273.200,226.800 273.080,226.800 271.000 L 226.800 268.800 235.818 268.800 L 244.836 268.800 245.836 267.800 C 247.257 266.379,247.155 261.479,245.700 261.272 C 244.859 261.153,244.800 260.950,244.800 258.172 C 244.800 255.269,244.777 255.200,243.800 255.200 C 243.000 255.200,242.800 255.000,242.800 254.200 C 242.800 253.400,242.600 253.200,241.800 253.200 C 241.000 253.200,240.800 253.000,240.800 252.200 C 240.800 251.267,240.667 251.200,238.800 251.200 C 236.933 251.200,236.800 251.133,236.800 250.200 L 236.800 249.200 232.629 249.200 C 229.370 249.200,228.320 249.338,227.829 249.829 M342.898 250.179 C 341.955 250.972,341.244 251.200,339.706 251.200 C 337.525 251.200,333.190 254.499,333.197 256.154 C 333.199 256.569,332.750 257.325,332.200 257.835 L 331.200 258.762 331.200 266.781 L 331.200 274.800 332.200 274.800 C 333.133 274.800,333.200 274.933,333.200 276.800 C 333.200 278.667,333.267 278.800,334.200 278.800 C 334.920 278.800,335.200 279.015,335.200 279.569 C 335.200 280.585,337.444 282.800,338.473 282.800 C 338.920 282.800,339.639 283.250,340.071 283.800 C 340.793 284.717,341.122 284.800,344.048 284.800 C 346.937 284.800,347.326 284.706,348.165 283.800 C 348.897 283.010,349.482 282.800,350.946 282.800 C 352.657 282.800,352.800 282.723,352.800 281.800 C 352.800 281.000,353.000 280.800,353.800 280.800 C 354.600 280.800,354.800 280.600,354.800 279.800 C 354.800 279.006,355.001 278.800,355.778 278.800 C 356.657 278.800,356.771 278.608,356.906 276.900 L 357.056 275.000 357.128 276.900 C 357.194 278.641,357.284 278.800,358.200 278.800 C 359.000 278.800,359.200 279.000,359.200 279.800 C 359.200 280.600,359.400 280.800,360.200 280.800 C 361.000 280.800,361.200 281.000,361.200 281.800 C 361.200 282.733,361.333 282.800,363.200 282.800 C 365.067 282.800,365.200 282.867,365.200 283.800 C 365.200 284.796,365.213 284.800,369.000 284.800 C 372.787 284.800,372.800 284.796,372.800 283.800 C 372.800 282.867,372.933 282.800,374.800 282.800 C 376.667 282.800,376.800 282.733,376.800 281.800 C 376.800 281.000,377.000 280.800,377.800 280.800 C 378.600 280.800,378.800 280.600,378.800 279.800 C 378.800 279.000,379.000 278.800,379.800 278.800 L 380.800 278.800 380.800 274.000 L 380.800 269.200 379.800 269.200 C 379.000 269.200,378.800 269.000,378.800 268.200 C 378.800 267.400,378.600 267.200,377.800 267.200 C 377.005 267.200,376.800 266.999,376.800 266.218 C 376.800 265.275,376.681 265.230,373.900 265.118 C 371.239 265.010,370.989 264.926,370.872 264.100 C 370.759 263.306,370.513 263.200,368.772 263.200 C 366.935 263.200,366.800 263.131,366.800 262.200 C 366.800 261.400,366.600 261.200,365.800 261.200 C 364.956 261.200,364.800 261.013,364.800 260.000 C 364.800 258.987,364.956 258.800,365.800 258.800 C 366.600 258.800,366.800 258.600,366.800 257.800 C 366.800 256.855,366.920 256.800,369.000 256.800 C 371.080 256.800,371.200 256.855,371.200 257.800 C 371.200 258.600,371.400 258.800,372.200 258.800 C 373.178 258.800,373.200 258.867,373.200 261.800 L 373.200 264.800 377.000 264.800 L 380.800 264.800 380.800 259.000 L 380.800 253.200 379.800 253.200 C 379.000 253.200,378.800 253.000,378.800 252.200 C 378.800 251.400,378.600 251.200,377.800 251.200 C 377.086 251.200,376.800 250.984,376.800 250.443 C 376.800 248.703,363.875 248.488,362.164 250.200 C 361.614 250.750,360.722 251.200,360.182 251.200 C 359.429 251.200,359.200 251.411,359.200 252.105 C 359.200 252.660,358.852 253.163,358.300 253.405 C 357.490 253.761,357.378 254.159,357.176 257.400 L 356.951 261.000 356.876 258.100 C 356.802 255.293,356.768 255.200,355.800 255.200 C 355.000 255.200,354.800 255.000,354.800 254.200 C 354.800 253.400,354.600 253.200,353.800 253.200 C 353.000 253.200,352.800 253.000,352.800 252.200 C 352.800 251.225,352.727 251.200,349.895 251.200 C 347.266 251.200,346.952 251.114,346.595 250.300 C 346.021 248.992,344.373 248.938,342.898 250.179 M233.200 257.800 C 233.200 258.588,233.403 258.800,234.157 258.800 C 234.836 258.800,235.184 259.082,235.357 259.772 C 235.504 260.355,235.961 260.814,236.501 260.918 C 236.995 261.013,234.970 261.089,232.000 261.086 C 229.030 261.083,227.095 261.005,227.700 260.913 C 228.553 260.784,228.800 260.528,228.800 259.773 C 228.800 258.998,229.006 258.800,229.814 258.800 C 230.372 258.800,231.227 258.369,231.714 257.842 C 232.871 256.591,233.200 256.582,233.200 257.800 M346.495 258.800 C 348.169 258.800,349.200 259.814,349.200 261.462 C 349.200 262.623,349.333 262.800,350.200 262.800 C 351.000 262.800,351.200 263.000,351.200 263.800 C 351.200 264.777,351.269 264.800,354.172 264.800 C 356.950 264.800,357.153 264.859,357.272 265.700 C 357.354 266.278,357.722 266.646,358.300 266.728 C 358.951 266.820,359.200 267.124,359.200 267.828 C 359.200 268.580,359.411 268.800,360.136 268.800 C 360.746 268.800,361.230 269.148,361.527 269.800 C 361.943 270.712,362.203 270.800,364.497 270.800 C 366.720 270.800,367.056 270.904,367.405 271.700 C 367.709 272.392,368.188 272.628,369.475 272.722 C 370.838 272.821,371.173 273.004,371.275 273.705 C 371.350 274.226,371.796 274.677,372.400 274.844 L 373.400 275.120 372.328 275.160 C 371.536 275.190,371.222 275.435,371.128 276.100 C 370.950 277.352,368.800 277.660,368.800 276.434 C 368.800 275.894,368.459 275.530,367.800 275.364 C 367.179 275.208,366.800 274.830,366.800 274.364 C 366.800 273.899,366.421 273.520,365.800 273.364 C 365.082 273.184,364.800 272.843,364.800 272.157 C 364.800 271.045,357.238 270.593,357.168 271.700 C 357.143 272.100,357.096 272.100,356.935 271.700 C 356.080 269.581,349.200 271.913,349.200 274.322 C 349.200 274.992,348.963 275.200,348.200 275.200 C 347.400 275.200,347.200 275.400,347.200 276.200 C 347.200 277.145,347.080 277.200,345.000 277.200 C 342.920 277.200,342.800 277.145,342.800 276.200 C 342.800 275.400,342.600 275.200,341.800 275.200 C 340.867 275.200,340.800 275.067,340.800 273.200 C 340.800 271.327,340.736 271.200,339.788 271.200 L 338.776 271.200 338.888 266.100 C 338.997 261.155,339.027 260.996,339.900 260.872 C 340.551 260.780,340.800 260.476,340.800 259.772 C 340.800 258.932,340.986 258.800,342.171 258.800 C 343.513 258.800,344.740 258.011,344.860 257.071 C 344.893 256.812,344.995 257.095,345.087 257.700 C 345.227 258.628,345.447 258.800,346.495 258.800 M45.200 265.000 L 45.200 268.800 56.000 268.800 L 66.800 268.800 66.800 265.000 L 66.800 261.200 56.000 261.200 L 45.200 261.200 45.200 265.000 M97.272 263.700 C 97.354 264.278,97.722 264.646,98.300 264.728 C 99.180 264.853,99.200 264.970,99.200 270.000 C 99.200 275.030,99.180 275.147,98.300 275.272 C 97.722 275.354,97.354 275.722,97.272 276.300 C 97.097 277.533,94.800 277.633,94.800 276.408 C 94.800 275.900,94.447 275.527,93.820 275.369 C 92.073 274.931,92.083 264.800,93.830 264.800 C 94.598 264.800,94.800 264.592,94.800 263.800 C 94.800 262.396,97.074 262.304,97.272 263.700 M167.200 271.800 C 167.200 272.600,167.400 272.800,168.200 272.800 C 170.235 272.800,169.577 275.127,167.500 275.277 C 166.187 275.372,165.710 275.605,165.405 276.300 C 164.775 277.736,160.800 277.650,160.800 276.200 C 160.800 275.393,160.602 275.200,159.773 275.200 C 158.370 275.200,158.485 273.073,159.900 272.872 C 160.551 272.780,160.800 272.476,160.800 271.772 C 160.800 270.824,160.878 270.800,164.000 270.800 C 167.147 270.800,167.200 270.817,167.200 271.800 M294.342 271.807 C 294.860 272.353,295.760 272.811,296.342 272.825 L 297.400 272.851 296.462 273.226 C 295.947 273.433,295.431 273.962,295.316 274.401 C 295.181 274.918,294.770 275.200,294.153 275.200 C 293.403 275.200,293.200 275.413,293.200 276.200 C 293.200 277.573,289.029 277.727,287.889 276.395 C 287.036 275.400,286.968 272.864,287.785 272.550 C 288.106 272.427,288.479 271.983,288.612 271.563 C 289.009 270.310,293.087 270.484,294.342 271.807 " stroke="none" fill="#040404" fill-rule="evenodd"></path><path id="path4" d="M303.200 127.551 C 303.200 128.063,304.376 128.957,304.667 128.667 C 304.957 128.376,304.063 127.200,303.551 127.200 C 303.358 127.200,303.200 127.358,303.200 127.551 M305.600 130.000 C 306.023 130.790,306.800 131.101,306.800 130.480 C 306.800 130.059,305.931 129.200,305.506 129.200 C 305.322 129.200,305.365 129.560,305.600 130.000 M307.454 131.700 C 307.619 131.975,309.115 133.856,310.777 135.880 C 314.459 140.363,314.941 141.005,317.470 144.800 C 320.745 149.715,321.721 151.286,322.939 153.600 C 324.434 156.442,324.800 156.818,324.800 155.511 C 324.800 154.934,324.350 153.927,323.800 153.273 C 323.250 152.619,322.800 151.614,322.800 151.040 C 322.800 150.424,322.390 149.638,321.800 149.125 C 321.250 148.647,320.800 147.851,320.800 147.356 C 320.800 146.449,319.857 145.200,319.171 145.200 C 318.967 145.200,318.800 144.778,318.800 144.262 C 318.800 143.746,318.422 142.982,317.959 142.563 C 317.497 142.144,316.862 141.306,316.549 140.701 C 316.236 140.095,315.727 139.600,315.418 139.600 C 315.108 139.600,314.798 139.195,314.728 138.700 C 314.658 138.205,314.195 137.622,313.700 137.405 C 313.205 137.188,312.800 136.676,312.800 136.268 C 312.800 135.852,312.434 135.429,311.969 135.308 C 311.512 135.188,310.977 134.665,310.779 134.145 C 310.582 133.625,310.141 133.200,309.800 133.200 C 309.459 133.200,309.009 132.750,308.800 132.200 C 308.591 131.650,308.135 131.200,307.786 131.200 C 307.386 131.200,307.263 131.384,307.454 131.700 M325.200 157.975 C 325.200 158.249,325.560 158.931,326.000 159.491 C 326.721 160.408,326.800 160.430,326.800 159.716 C 326.800 159.280,326.440 158.598,326.000 158.200 C 325.481 157.731,325.200 157.651,325.200 157.975 " stroke="none" fill="#1c242c" fill-rule="evenodd"></path></g></svg>